<?xml version="1.0" encoding="UTF-8" standalone="no"?>
<!DOCTYPE svg PUBLIC "-//W3C//DTD SVG 1.1//EN"
 "http://www.w3.org/Graphics/SVG/1.1/DTD/svg11.dtd">
<!-- Generated by graphviz version 2.50.0 (0)
 -->
<!-- Title: DockerDeps Pages: 1 -->
<svg width="723pt" height="590pt"
 viewBox="0.00 0.00 723.00 590.00" xmlns="http://www.w3.org/2000/svg" xmlns:xlink="http://www.w3.org/1999/xlink">
<g id="graph0" class="graph" transform="scale(1 1) rotate(0) translate(4 586)">
<title>DockerDeps</title>
<polygon fill="white" stroke="transparent" points="-4,4 -4,-586 719,-586 719,4 -4,4"/>
<g id="clust1" class="cluster">
<title>clusterDockerfile</title>
<polygon fill="none" stroke="royalblue" points="284,-116 284,-503 500,-503 500,-116 284,-116"/>
<text text-anchor="middle" x="392" y="-487.8" font-family="Times,serif" font-size="14.00">docker/&lt;distro&gt;/Dockerfile</text>
</g>
<g id="clust2" class="cluster">
<title>clusterCache</title>
<polygon fill="none" stroke="royalblue" points="8,-8 8,-83 592,-83 592,-8 8,-8"/>
<text text-anchor="middle" x="300" y="-67.8" font-family="Times,serif" font-size="14.00">cache/&lt;distro&gt;/</text>
</g>
<!-- DISTRO_IMG -->
<g id="node1" class="node">
<title>DISTRO_IMG</title>
<path fill="royalblue" stroke="black" d="M378,-577.73C378,-579.53 349.31,-581 314,-581 278.69,-581 250,-579.53 250,-577.73 250,-577.73 250,-548.27 250,-548.27 250,-546.47 278.69,-545 314,-545 349.31,-545 378,-546.47 378,-548.27 378,-548.27 378,-577.73 378,-577.73"/>
<path fill="none" stroke="black" d="M378,-577.73C378,-575.92 349.31,-574.45 314,-574.45 278.69,-574.45 250,-575.92 250,-577.73"/>
<text text-anchor="middle" x="314" y="-559.3" font-family="Times,serif" font-size="14.00">&lt;distro&gt;:latest</text>
</g>
<!-- ENV_IMG -->
<g id="node4" class="node">
<title>ENV_IMG</title>
<path fill="royalblue" stroke="black" d="M480.5,-467.35C480.5,-469.99 438.59,-472.13 387,-472.13 335.41,-472.13 293.5,-469.99 293.5,-467.35 293.5,-467.35 293.5,-424.4 293.5,-424.4 293.5,-421.76 335.41,-419.62 387,-419.62 438.59,-419.62 480.5,-421.76 480.5,-424.4 480.5,-424.4 480.5,-467.35 480.5,-467.35"/>
<path fill="none" stroke="black" d="M480.5,-467.35C480.5,-464.72 438.59,-462.58 387,-462.58 335.41,-462.58 293.5,-464.72 293.5,-467.35"/>
<text text-anchor="middle" x="387" y="-449.68" font-family="Times,serif" font-size="14.00">bazel&#45;cpp:&lt;distro&gt;_env</text>
<text text-anchor="middle" x="387" y="-434.68" font-family="Times,serif" font-size="14.00">env</text>
</g>
<!-- DISTRO_IMG&#45;&gt;ENV_IMG -->
<g id="edge4" class="edge">
<title>DISTRO_IMG&#45;&gt;ENV_IMG</title>
<path fill="none" stroke="black" d="M325.09,-544.51C335.77,-527.67 352.21,-501.74 365.46,-480.84"/>
<polygon fill="black" stroke="black" points="368.53,-482.55 370.92,-472.23 362.61,-478.8 368.53,-482.55"/>
</g>
<!-- PKG -->
<g id="node2" class="node">
<title>PKG</title>
<polygon fill="royalblue" stroke="black" points="523.5,-582 400.5,-582 396.5,-578 396.5,-544 519.5,-544 523.5,-548 523.5,-582"/>
<polyline fill="none" stroke="black" points="519.5,-578 396.5,-578 "/>
<polyline fill="none" stroke="black" points="519.5,-578 519.5,-544 "/>
<polyline fill="none" stroke="black" points="519.5,-578 523.5,-582 "/>
<text text-anchor="middle" x="460" y="-566.8" font-family="Times,serif" font-size="14.00">packages</text>
<text text-anchor="middle" x="460" y="-551.8" font-family="Times,serif" font-size="14.00">e.g. bazel, g++</text>
</g>
<!-- PKG&#45;&gt;ENV_IMG -->
<g id="edge5" class="edge">
<title>PKG&#45;&gt;ENV_IMG</title>
<path fill="none" stroke="black" stroke-dasharray="5,2" d="M448.43,-543.76C437.74,-526.89 421.58,-501.4 408.51,-480.8"/>
<polygon fill="black" stroke="black" points="411.44,-478.88 403.13,-472.31 405.53,-482.63 411.44,-478.88"/>
<text text-anchor="middle" x="458.5" y="-514.8" font-family="Times,serif" font-size="14.00">install</text>
</g>
<!-- SRC -->
<g id="node3" class="node">
<title>SRC</title>
<polygon fill="royalblue" stroke="black" points="581.5,-463.88 578.5,-467.88 557.5,-467.88 554.5,-463.88 508.5,-463.88 508.5,-427.88 581.5,-427.88 581.5,-463.88"/>
<text text-anchor="middle" x="545" y="-442.18" font-family="Times,serif" font-size="14.00">git repo</text>
</g>
<!-- DEVEL_IMG -->
<g id="node5" class="node">
<title>DEVEL_IMG</title>
<path fill="royalblue" stroke="black" d="M492,-364.1C492,-366.74 447.18,-368.88 392,-368.88 336.82,-368.88 292,-366.74 292,-364.1 292,-364.1 292,-321.15 292,-321.15 292,-318.51 336.82,-316.37 392,-316.37 447.18,-316.37 492,-318.51 492,-321.15 492,-321.15 492,-364.1 492,-364.1"/>
<path fill="none" stroke="black" d="M492,-364.1C492,-361.47 447.18,-359.33 392,-359.33 336.82,-359.33 292,-361.47 292,-364.1"/>
<text text-anchor="middle" x="392" y="-346.43" font-family="Times,serif" font-size="14.00">bazel&#45;cpp:&lt;distro&gt;_devel</text>
<text text-anchor="middle" x="392" y="-331.43" font-family="Times,serif" font-size="14.00">devel</text>
</g>
<!-- SRC&#45;&gt;DEVEL_IMG -->
<g id="edge6" class="edge">
<title>SRC&#45;&gt;DEVEL_IMG</title>
<path fill="none" stroke="black" stroke-dasharray="5,2" d="M519.05,-427.7C497.04,-413.14 464.94,-391.9 438.52,-374.41"/>
<polygon fill="black" stroke="black" points="440.43,-371.47 430.16,-368.87 436.56,-377.31 440.43,-371.47"/>
<text text-anchor="middle" x="494" y="-390.55" font-family="Times,serif" font-size="14.00">copy</text>
</g>
<!-- ENV_IMG&#45;&gt;DEVEL_IMG -->
<g id="edge1" class="edge">
<title>ENV_IMG&#45;&gt;DEVEL_IMG</title>
<path fill="none" stroke="black" d="M388.25,-419.59C388.85,-407.38 389.58,-392.54 390.24,-379.22"/>
<polygon fill="black" stroke="black" points="393.75,-379.1 390.75,-368.94 386.76,-378.76 393.75,-379.1"/>
</g>
<!-- ENV_TAR -->
<g id="node8" class="node">
<title>ENV_TAR</title>
<polygon fill="royalblue" stroke="black" points="130,-52 16,-52 16,-16 136,-16 136,-46 130,-52"/>
<polyline fill="none" stroke="black" points="130,-52 130,-46 "/>
<polyline fill="none" stroke="black" points="136,-46 130,-46 "/>
<text text-anchor="middle" x="76" y="-30.3" font-family="Times,serif" font-size="14.00">docker_env.tar</text>
</g>
<!-- ENV_IMG&#45;&gt;ENV_TAR -->
<g id="edge7" class="edge">
<title>ENV_IMG&#45;&gt;ENV_TAR</title>
<path fill="none" stroke="red" d="M293.35,-434.85C194.86,-421.63 54,-393.93 54,-343.62 54,-343.62 54,-343.62 54,-149.12 54,-118.85 61.56,-84.87 67.81,-61.92"/>
<polygon fill="red" stroke="red" points="71.2,-62.78 70.56,-52.2 64.47,-60.87 71.2,-62.78"/>
<text text-anchor="middle" x="144.5" y="-249.68" font-family="Times,serif" font-size="14.00">make save_&lt;distro&gt;_env</text>
</g>
<!-- BUILD_IMG -->
<g id="node6" class="node">
<title>BUILD_IMG</title>
<path fill="royalblue" stroke="black" d="M491.5,-274.85C491.5,-277.49 447.35,-279.63 393,-279.63 338.65,-279.63 294.5,-277.49 294.5,-274.85 294.5,-274.85 294.5,-231.9 294.5,-231.9 294.5,-229.26 338.65,-227.12 393,-227.12 447.35,-227.12 491.5,-229.26 491.5,-231.9 491.5,-231.9 491.5,-274.85 491.5,-274.85"/>
<path fill="none" stroke="black" d="M491.5,-274.85C491.5,-272.22 447.35,-270.08 393,-270.08 338.65,-270.08 294.5,-272.22 294.5,-274.85"/>
<text text-anchor="middle" x="393" y="-257.18" font-family="Times,serif" font-size="14.00">bazel&#45;cpp:&lt;distro&gt;_build</text>
<text text-anchor="middle" x="393" y="-242.18" font-family="Times,serif" font-size="14.00">build</text>
</g>
<!-- DEVEL_IMG&#45;&gt;BUILD_IMG -->
<g id="edge2" class="edge">
<title>DEVEL_IMG&#45;&gt;BUILD_IMG</title>
<path fill="none" stroke="black" d="M392.29,-316.39C392.38,-308.07 392.49,-298.66 392.59,-289.72"/>
<polygon fill="black" stroke="black" points="396.1,-289.59 392.71,-279.55 389.1,-289.51 396.1,-289.59"/>
</g>
<!-- DEVEL_TAR -->
<g id="node9" class="node">
<title>DEVEL_TAR</title>
<polygon fill="royalblue" stroke="black" points="283.5,-52 154.5,-52 154.5,-16 289.5,-16 289.5,-46 283.5,-52"/>
<polyline fill="none" stroke="black" points="283.5,-52 283.5,-46 "/>
<polyline fill="none" stroke="black" points="289.5,-46 283.5,-46 "/>
<text text-anchor="middle" x="222" y="-30.3" font-family="Times,serif" font-size="14.00">docker_devel.tar</text>
</g>
<!-- DEVEL_IMG&#45;&gt;DEVEL_TAR -->
<g id="edge8" class="edge">
<title>DEVEL_IMG&#45;&gt;DEVEL_TAR</title>
<path fill="none" stroke="red" d="M333.03,-316.48C316.03,-306.93 298.67,-294.62 286,-279.5 232.28,-215.41 223.08,-111.23 221.88,-62.18"/>
<polygon fill="red" stroke="red" points="225.38,-61.98 221.73,-52.04 218.38,-62.09 225.38,-61.98"/>
<text text-anchor="middle" x="342.5" y="-198.05" font-family="Times,serif" font-size="14.00">make save_&lt;distro&gt;_devel</text>
</g>
<!-- TEST_IMG -->
<g id="node7" class="node">
<title>TEST_IMG</title>
<path fill="royalblue" stroke="black" d="M484.5,-171.6C484.5,-174.24 442.14,-176.38 390,-176.38 337.86,-176.38 295.5,-174.24 295.5,-171.6 295.5,-171.6 295.5,-128.65 295.5,-128.65 295.5,-126.01 337.86,-123.87 390,-123.87 442.14,-123.87 484.5,-126.01 484.5,-128.65 484.5,-128.65 484.5,-171.6 484.5,-171.6"/>
<path fill="none" stroke="black" d="M484.5,-171.6C484.5,-168.97 442.14,-166.83 390,-166.83 337.86,-166.83 295.5,-168.97 295.5,-171.6"/>
<text text-anchor="middle" x="390" y="-153.93" font-family="Times,serif" font-size="14.00">bazel&#45;cpp:&lt;distro&gt;_test</text>
<text text-anchor="middle" x="390" y="-138.93" font-family="Times,serif" font-size="14.00">test</text>
</g>
<!-- BUILD_IMG&#45;&gt;TEST_IMG -->
<g id="edge3" class="edge">
<title>BUILD_IMG&#45;&gt;TEST_IMG</title>
<path fill="none" stroke="black" d="M445.2,-227.18C456.78,-218 463.83,-206.77 457,-194.25 454.91,-190.42 452.33,-186.89 449.39,-183.63"/>
<polygon fill="black" stroke="black" points="451.63,-180.92 441.99,-176.51 446.77,-185.96 451.63,-180.92"/>
</g>
<!-- BUILD_TAR -->
<g id="node10" class="node">
<title>BUILD_TAR</title>
<polygon fill="royalblue" stroke="black" points="577.5,-52 450.5,-52 450.5,-16 583.5,-16 583.5,-46 577.5,-52"/>
<polyline fill="none" stroke="black" points="577.5,-52 577.5,-46 "/>
<polyline fill="none" stroke="black" points="583.5,-46 577.5,-46 "/>
<text text-anchor="middle" x="517" y="-30.3" font-family="Times,serif" font-size="14.00">docker_build.tar</text>
</g>
<!-- BUILD_IMG&#45;&gt;BUILD_TAR -->
<g id="edge9" class="edge">
<title>BUILD_IMG&#45;&gt;BUILD_TAR</title>
<path fill="none" stroke="red" d="M439.25,-227.19C458.83,-214.35 480.24,-197.03 494,-176.25 516.26,-142.63 527.86,-131.21 525,-91 524.33,-81.57 523.03,-71.3 521.67,-62.17"/>
<polygon fill="red" stroke="red" points="525.1,-61.42 520.08,-52.09 518.18,-62.51 525.1,-61.42"/>
<text text-anchor="middle" x="619.5" y="-146.43" font-family="Times,serif" font-size="14.00">make save_&lt;distro&gt;_build</text>
</g>
<!-- TEST_TAR -->
<g id="node11" class="node">
<title>TEST_TAR</title>
<polygon fill="royalblue" stroke="black" points="426.5,-52 307.5,-52 307.5,-16 432.5,-16 432.5,-46 426.5,-52"/>
<polyline fill="none" stroke="black" points="426.5,-52 426.5,-46 "/>
<polyline fill="none" stroke="black" points="432.5,-46 426.5,-46 "/>
<text text-anchor="middle" x="370" y="-30.3" font-family="Times,serif" font-size="14.00">docker_test.tar</text>
</g>
<!-- TEST_IMG&#45;&gt;TEST_TAR -->
<g id="edge10" class="edge">
<title>TEST_IMG&#45;&gt;TEST_TAR</title>
<path fill="none" stroke="red" d="M354.43,-123.79C349.38,-118.52 344.92,-112.55 342,-106 335.36,-91.11 341.57,-74.13 349.82,-60.51"/>
<polygon fill="red" stroke="red" points="352.78,-62.37 355.41,-52.1 346.96,-58.49 352.78,-62.37"/>
<text text-anchor="middle" x="433.5" y="-94.8" font-family="Times,serif" font-size="14.00">make save_&lt;distro&gt;_test</text>
</g>
</g>
</svg>
